<?xml version="1.0" encoding="UTF-8" standalone="no"?>
<!DOCTYPE svg PUBLIC "-//W3C//DTD SVG 1.1//EN"
 "http://www.w3.org/Graphics/SVG/1.1/DTD/svg11.dtd">
<!-- Generated by graphviz version 2.43.0 (0)
 -->
<!-- Title: %3 Pages: 1 -->
<svg width="634pt" height="165pt"
 viewBox="0.00 0.00 634.00 164.74" xmlns="http://www.w3.org/2000/svg" xmlns:xlink="http://www.w3.org/1999/xlink">
<g id="graph0" class="graph" transform="scale(1 1) rotate(0) translate(36 128.74)">
<title>%3</title>
<polygon fill="dimgray" stroke="transparent" points="-36,36 -36,-128.74 598,-128.74 598,36 -36,36"/>
<text text-anchor="middle" x="281" y="-77.54" font-family="Helvetica,sans-Serif" font-size="14.00">Sweep&#39;s Plan &amp; Progress</text>
<!-- start -->
<g id="node1" class="node">
<title>start</title>
</g>
<!-- 7d78a3e6&#45;9bd3&#45;4bb3&#45;9baa&#45;1b1550599cac -->
<g id="node3" class="node">
<title>7d78a3e6&#45;9bd3&#45;4bb3&#45;9baa&#45;1b1550599cac</title>
<ellipse fill="#ee0000" stroke="black" cx="145.5" cy="-26.87" rx="93.18" ry="26.74"/>
<text text-anchor="middle" x="145.5" y="-30.67" font-family="Helvetica,sans-Serif" font-size="14.00">✗ Modify</text>
<text text-anchor="middle" x="145.5" y="-15.67" font-family="Helvetica,sans-Serif" font-size="14.00">public/js/client.js</text>
</g>
<!-- start&#45;&gt;7d78a3e6&#45;9bd3&#45;4bb3&#45;9baa&#45;1b1550599cac -->
<g id="edge2" class="edge">
<title>start&#45;&gt;7d78a3e6&#45;9bd3&#45;4bb3&#45;9baa&#45;1b1550599cac</title>
<path fill="none" stroke="black" d="M1.15,-26.87C4.55,-26.87 21.03,-26.87 41.7,-26.87"/>
<polygon fill="black" stroke="black" points="41.81,-30.37 51.81,-26.87 41.81,-23.37 41.81,-30.37"/>
<text text-anchor="middle" x="26.58" y="-33.67" font-family="Helvetica,sans-Serif" font-size="14.00">Start</text>
</g>
<!-- end -->
<g id="node2" class="node">
<title>end</title>
</g>
<!-- ec340cc3&#45;46e0&#45;40a0&#45;842b&#45;9b7421b37030 -->
<g id="node4" class="node">
<title>ec340cc3&#45;46e0&#45;40a0&#45;842b&#45;9b7421b37030</title>
<ellipse fill="#0ee832" stroke="black" cx="388.5" cy="-26.87" rx="114.6" ry="26.74"/>
<text text-anchor="middle" x="388.5" y="-30.67" font-family="Helvetica,sans-Serif" font-size="14.00">✓ Modify</text>
<text text-anchor="middle" x="388.5" y="-15.67" font-family="Helvetica,sans-Serif" font-size="14.00">public/js/msgpackr.js</text>
</g>
<!-- 7d78a3e6&#45;9bd3&#45;4bb3&#45;9baa&#45;1b1550599cac&#45;&gt;ec340cc3&#45;46e0&#45;40a0&#45;842b&#45;9b7421b37030 -->
<g id="edge1" class="edge">
<title>7d78a3e6&#45;9bd3&#45;4bb3&#45;9baa&#45;1b1550599cac&#45;&gt;ec340cc3&#45;46e0&#45;40a0&#45;842b&#45;9b7421b37030</title>
<path fill="none" stroke="black" d="M239,-26.87C247.23,-26.87 255.47,-26.87 263.7,-26.87"/>
<polygon fill="black" stroke="black" points="263.75,-30.37 273.75,-26.87 263.75,-23.37 263.75,-30.37"/>
</g>
<!-- ec340cc3&#45;46e0&#45;40a0&#45;842b&#45;9b7421b37030&#45;&gt;end -->
<g id="edge3" class="edge">
<title>ec340cc3&#45;46e0&#45;40a0&#45;842b&#45;9b7421b37030&#45;&gt;end</title>
<path fill="none" stroke="black" d="M503.41,-26.87C522.87,-26.87 540.17,-26.87 550.72,-26.87"/>
<polygon fill="black" stroke="black" points="550.83,-30.37 560.83,-26.87 550.83,-23.37 550.83,-30.37"/>
<text text-anchor="middle" x="532.03" y="-33.67" font-family="Helvetica,sans-Serif" font-size="14.00">Finish</text>
</g>
</g>
</svg>
